<svg xmlns="http://www.w3.org/2000/svg" width="1600" height="800" viewBox="0 0 1600 800"><rect width="100%" height="100%" fill="#DDDDDD"/><path fill="#999999" d="M411.715 432.095q1.84 0 3.27 1.42l8.91 9.66q-7.4 9.16-18.19 14.03t-25.91 4.87q-13.53 0-24.32-4.62-10.8-4.62-18.44-12.85t-11.72-19.65q-4.07-11.43-4.07-24.95 0-13.69 4.37-25.08 4.36-11.38 12.3-19.61t18.94-12.81q11.01-4.58 24.36-4.58 13.28 0 23.57 4.37t17.51 11.42l-7.56 10.5q-.67 1.01-1.72 1.77-1.05.75-2.9.75-1.26 0-2.6-.71-1.35-.71-2.94-1.76-1.6-1.05-3.7-2.31t-4.87-2.31-6.43-1.77q-3.65-.71-8.44-.71-8.15 0-14.91 2.9-6.76 2.89-11.63 8.4-4.88 5.5-7.56 13.44-2.69 7.93-2.69 18.1 0 10.25 2.9 18.23 2.89 7.98 7.85 13.44t11.68 8.35q6.72 2.9 14.44 2.9 4.62 0 8.36-.5 3.74-.51 6.89-1.6t5.96-2.81q2.82-1.72 5.59-4.24.84-.76 1.76-1.22.93-.46 1.94-.46m62.58-58.89q9.57 0 17.43 3.11 7.85 3.11 13.44 8.82 5.58 5.71 8.61 13.94 3.02 8.24 3.02 18.4 0 10.25-3.02 18.48-3.03 8.23-8.61 14.03-5.59 5.79-13.44 8.9-7.86 3.11-17.43 3.11-9.66 0-17.56-3.11t-13.48-8.9q-5.59-5.8-8.65-14.03-3.07-8.23-3.07-18.48 0-10.16 3.07-18.4 3.06-8.23 8.65-13.94 5.58-5.71 13.48-8.82t17.56-3.11m0 72.83q10.75 0 15.91-7.22 5.17-7.23 5.17-21.17 0-13.95-5.17-21.25-5.16-7.31-15.91-7.31-10.92 0-16.17 7.35t-5.25 21.21 5.25 21.12q5.25 7.27 16.17 7.27m76.35-67.7 1.43 6.8q2.6-2.6 5.5-4.83t6.13-3.78q3.24-1.55 6.93-2.44 3.7-.88 8.07-.88 7.05 0 12.51 2.4 5.46 2.39 9.12 6.72 3.65 4.32 5.54 10.33 1.89 6 1.89 13.23v54.85h-20.75v-54.85q0-7.9-3.61-12.22-3.61-4.33-11-4.33-5.38 0-10.08 2.44-4.71 2.43-8.91 6.63v62.33h-20.74v-86.18h12.68q4.03 0 5.29 3.78m105.51 83.74q-11.26 0-17.27-6.34-6-6.34-6-17.51v-48.13h-8.82q-1.68 0-2.86-1.1-1.17-1.09-1.17-3.27v-8.23l13.86-2.27 4.36-23.52q.42-1.68 1.6-2.61 1.18-.92 3.02-.92h10.76v27.13h23.01v14.79h-23.01v46.7q0 4.03 1.97 6.3t5.42 2.27q1.93 0 3.23-.46 1.3-.47 2.27-.97t1.72-.97q.76-.46 1.51-.46.93 0 1.52.46.58.47 1.26 1.39l6.21 10.08q-4.53 3.78-10.41 5.71t-12.18 1.93m79.29-23.6v-14.53q-8.99.42-15.12 1.55-6.13 1.14-9.83 2.9-3.69 1.76-5.29 4.12-1.59 2.35-1.59 5.12 0 5.46 3.23 7.81t8.44 2.35q6.39 0 11.05-2.31t9.11-7.01m-43.85-45.28-3.69-6.63q14.87-13.61 35.78-13.61 7.56 0 13.53 2.48 5.96 2.48 10.08 6.89 4.11 4.41 6.25 10.54 2.15 6.13 2.15 13.44v54.43h-9.41q-2.94 0-4.54-.88-1.59-.88-2.52-3.57l-1.85-6.22q-3.27 2.94-6.38 5.17-3.11 2.22-6.47 3.74-3.36 1.51-7.18 2.31-3.82.79-8.44.79-5.46 0-10.08-1.47t-7.98-4.41-5.21-7.3q-1.85-4.37-1.85-10.17 0-3.27 1.09-6.51 1.1-3.23 3.57-6.17 2.48-2.94 6.43-5.55 3.95-2.6 9.7-4.53 5.76-1.93 13.4-3.15t17.47-1.47v-5.04q0-8.65-3.69-12.81-3.7-4.16-10.67-4.16-5.04 0-8.36 1.18-3.32 1.17-5.84 2.64t-4.58 2.65q-2.05 1.17-4.57 1.17-2.19 0-3.7-1.13t-2.44-2.65m150.78-7.98-5.46 7.56q-.92 1.18-1.8 1.85t-2.56.67q-1.6 0-3.11-.96-1.51-.97-3.61-2.19-2.1-1.21-5-2.18t-7.18-.97q-5.46 0-9.58 1.98-4.12 1.97-6.85 5.67-2.73 3.69-4.07 8.94t-1.34 11.89q0 6.89 1.47 12.26 1.47 5.38 4.24 9.03 2.77 3.66 6.72 5.55t8.9 1.89q4.96 0 8.02-1.22 3.07-1.22 5.17-2.69t3.65-2.69q1.56-1.21 3.49-1.21 2.52 0 3.78 1.93l5.96 7.56q-3.44 4.03-7.47 6.76t-8.36 4.37-8.9 2.31q-4.58.67-9.12.67-7.98 0-15.03-2.98-7.06-2.98-12.35-8.7-5.29-5.71-8.36-13.98-3.07-8.28-3.07-18.86 0-9.49 2.73-17.6 2.73-8.1 8.03-14.03 5.29-5.92 13.1-9.28t17.98-3.36q9.66 0 16.92 3.11 7.27 3.11 13.06 8.9m42.51 76.86q-11.26 0-17.26-6.34-6.01-6.34-6.01-17.51v-48.13h-8.82q-1.68 0-2.86-1.1-1.17-1.09-1.17-3.27v-8.23l13.86-2.27 4.37-23.52q.42-1.68 1.59-2.61 1.18-.92 3.03-.92h10.75v27.13h23.01v14.79h-23.01v46.7q0 4.03 1.97 6.3 1.98 2.27 5.42 2.27 1.93 0 3.23-.46 1.31-.47 2.27-.97.97-.5 1.72-.97.76-.46 1.52-.46.92 0 1.51.46.59.47 1.26 1.39l6.21 10.08q-4.53 3.78-10.41 5.71t-12.18 1.93m161.28-29.98q1.85 0 3.27 1.42l8.91 9.66q-7.39 9.16-18.19 14.03-10.79 4.87-25.91 4.87-13.53 0-24.32-4.62t-18.44-12.85q-7.64-8.23-11.72-19.65-4.07-11.43-4.07-24.95 0-13.69 4.37-25.08 4.37-11.38 12.3-19.61 7.94-8.23 18.95-12.81 11-4.58 24.36-4.58 13.27 0 23.56 4.37t17.51 11.42l-7.56 10.5q-.67 1.01-1.72 1.77-1.05.75-2.9.75-1.26 0-2.6-.71-1.35-.71-2.94-1.76-1.6-1.05-3.7-2.31t-4.87-2.31-6.43-1.77q-3.65-.71-8.44-.71-8.15 0-14.91 2.9-6.76 2.89-11.63 8.4-4.87 5.5-7.56 13.44-2.69 7.93-2.69 18.1 0 10.25 2.9 18.23t7.85 13.44q4.96 5.46 11.68 8.35 6.72 2.9 14.45 2.9 4.62 0 8.35-.5 3.74-.51 6.89-1.6t5.97-2.81q2.81-1.72 5.58-4.24.84-.76 1.77-1.22.92-.46 1.93-.46m112.56-92.82v18.56h-36.63v102.9h-22.59v-102.9h-36.63v-18.56zm41.49 75.6h38.64l-14.78-40.41q-1.09-2.69-2.27-6.38-1.17-3.7-2.35-7.98-1.09 4.28-2.27 8.02-1.17 3.74-2.27 6.51zm30.83-75.6 47.71 121.46h-17.47q-2.94 0-4.79-1.47-1.84-1.47-2.77-3.65l-9.07-24.78h-50.32l-9.07 24.78q-.67 1.93-2.6 3.52-1.93 1.6-4.79 1.6h-17.64l47.8-121.46z"/></svg>