<svg xmlns="http://www.w3.org/2000/svg" width="200" height="50" viewBox="0 0 200 50"><rect width="100%" height="100%" fill="#DDDDDD"/><path fill="#999999" d="M51.98 27.44q.24 0 .43.19l1.17 1.26q-.97 1.2-2.39 1.84-1.41.64-3.39.64-1.77 0-3.18-.61-1.42-.6-2.42-1.68t-1.53-2.58q-.54-1.49-.54-3.26 0-1.8.58-3.29.57-1.49 1.61-2.56 1.04-1.08 2.48-1.68t3.19-.6q1.74 0 3.08.57 1.35.57 2.3 1.5l-.99 1.37q-.09.13-.23.23t-.38.1q-.16 0-.34-.09-.17-.1-.38-.23-.21-.14-.49-.31-.27-.16-.64-.3-.36-.14-.84-.23t-1.1-.09q-1.07 0-1.96.38-.88.38-1.52 1.1t-.99 1.76-.35 2.37q0 1.34.38 2.38.38 1.05 1.03 1.76.65.72 1.53 1.1t1.89.38q.6 0 1.09-.07.49-.06.9-.21.42-.14.79-.37.36-.22.73-.55.11-.1.23-.16t.25-.06m3.24-12.6h2.71v16.35h-2.71zm5.52 5.06h2.73v11.29h-2.73zm3.1-3.28q0 .35-.14.66-.15.3-.38.53-.24.24-.56.37-.32.14-.68.14-.35 0-.67-.14-.31-.13-.54-.37-.23-.23-.37-.53-.14-.31-.14-.66 0-.37.14-.69t.37-.55.54-.37q.32-.13.67-.13.36 0 .68.13.32.14.56.37.23.23.38.55.14.32.14.69m4.54 7.63h5.13q0-.53-.15-1-.15-.46-.45-.82-.29-.35-.75-.55t-1.06-.2q-1.18 0-1.85.67-.68.67-.87 1.9m6.93 1.64h-6.98q.06.87.31 1.5.24.63.63 1.04.4.42.94.62.55.2 1.21.2t1.14-.15.83-.34q.36-.19.63-.34.27-.16.52-.16.34 0 .51.26l.78.99q-.45.52-1.01.88t-1.17.57q-.61.22-1.25.31-.63.08-1.22.08-1.18 0-2.19-.39t-1.76-1.15q-.75-.77-1.18-1.89-.43-1.13-.43-2.61 0-1.16.38-2.18.37-1.01 1.07-1.77.7-.75 1.7-1.19 1.01-.44 2.27-.44 1.07 0 1.97.34.91.34 1.55.99.65.66 1.02 1.61t.37 2.17q0 .62-.13.83-.13.22-.51.22m5.03-5.49.19.89q.34-.34.72-.63t.8-.5q.42-.2.91-.32.48-.11 1.05-.11.93 0 1.64.31.72.32 1.2.88.47.57.72 1.35.25.79.25 1.74v7.18H85.1v-7.18q0-1.04-.47-1.6-.47-.57-1.44-.57-.71 0-1.32.32-.62.32-1.17.87v8.16h-2.72V19.9h1.67q.52 0 .69.5m13.82 10.97q-1.48 0-2.27-.83-.78-.83-.78-2.3v-6.3h-1.16q-.22 0-.37-.14-.15-.15-.15-.43v-1.08l1.81-.3.57-3.08q.06-.22.21-.34.16-.12.4-.12h1.41V20h3.01v1.94h-3.01v6.12q0 .52.25.82.26.3.71.3.26 0 .43-.06t.29-.13q.13-.07.23-.13t.2-.06q.12 0 .2.06.07.06.16.18l.81 1.33q-.59.49-1.36.74-.77.26-1.59.26m13.15-2.62h6.36v2.44h-9.32V15.28h2.96zm13.04-9.02q1.25 0 2.28.41 1.03.4 1.76 1.15t1.13 1.83q.39 1.07.39 2.4 0 1.35-.39 2.43-.4 1.07-1.13 1.83t-1.76 1.17q-1.03.4-2.28.4-1.27 0-2.3-.4-1.04-.41-1.77-1.17t-1.13-1.83q-.4-1.08-.4-2.43 0-1.33.4-2.4.4-1.08 1.13-1.83t1.77-1.15q1.03-.41 2.3-.41m0 9.54q1.4 0 2.08-.95t.68-2.77q0-1.83-.68-2.79-.68-.95-2.08-.95-1.43 0-2.12.96t-.69 2.78q0 1.81.69 2.76.69.96 2.12.96m11.77-4q.5 0 .88-.14.37-.13.62-.37.24-.25.37-.59t.13-.75q0-.83-.5-1.32t-1.5-.49q-1.01 0-1.51.49t-.5 1.32q0 .4.13.74t.37.59q.25.25.63.38.38.14.88.14m3.06 6.43q0-.33-.19-.54-.2-.21-.54-.33-.34-.11-.8-.17-.46-.05-.97-.08t-1.05-.05q-.55-.02-1.07-.09-.45.26-.73.6t-.28.79q0 .29.15.55t.47.45q.33.19.85.29.51.1 1.26.1.76 0 1.31-.11.55-.12.91-.32.35-.2.52-.48.16-.28.16-.61m-.53-11.41h3.24v1.01q0 .49-.58.6l-1.01.18q.23.58.23 1.28 0 .83-.34 1.51-.33.68-.93 1.15-.59.47-1.4.73t-1.74.26q-.33 0-.64-.03-.31-.04-.61-.09-.53.32-.53.71 0 .35.32.5.31.16.83.23t1.18.08q.66.02 1.35.07.69.06 1.35.2.66.13 1.18.43t.83.81.31 1.31q0 .75-.37 1.46-.36.7-1.06 1.25t-1.72.89q-1.02.33-2.31.33-1.28 0-2.23-.25-.94-.24-1.57-.66-.63-.41-.93-.95-.31-.54-.31-1.12 0-.79.48-1.33.47-.53 1.31-.85-.45-.23-.71-.61-.27-.39-.27-1.02 0-.25.1-.52.09-.27.27-.53.18-.27.46-.5.27-.24.65-.43-.86-.46-1.35-1.23t-.49-1.8q0-.84.33-1.51.34-.68.94-1.16t1.42-.73 1.79-.25q.72 0 1.36.14.64.15 1.17.44m9.95-.56q1.25 0 2.28.41 1.03.4 1.76 1.15t1.13 1.83q.4 1.07.4 2.4 0 1.35-.4 2.43-.4 1.07-1.13 1.83t-1.76 1.17q-1.03.4-2.28.4-1.26 0-2.3-.4-1.03-.41-1.76-1.17-.74-.76-1.14-1.83-.4-1.08-.4-2.43 0-1.33.4-2.4.4-1.08 1.14-1.83.73-.75 1.76-1.15 1.04-.41 2.3-.41m0 9.54q1.41 0 2.09-.95.67-.95.67-2.77 0-1.83-.67-2.79-.68-.95-2.09-.95-1.43 0-2.12.96-.68.96-.68 2.78 0 1.81.68 2.76.69.96 2.12.96m15.15-8.14-.62.97q-.11.18-.23.25t-.31.07q-.2 0-.42-.11-.23-.11-.52-.24-.3-.14-.68-.25t-.9-.11q-.8 0-1.26.34-.45.34-.45.89 0 .36.23.61.24.25.63.44.39.18.89.33.49.15 1 .33.51.17 1.01.4.49.22.89.57.39.35.62.83.24.48.24 1.17 0 .81-.29 1.5-.29.68-.87 1.18-.57.51-1.41.79t-1.94.28q-.58 0-1.14-.11-.56-.1-1.07-.29t-.94-.44q-.44-.25-.77-.55l.63-1.03q.12-.19.29-.29.16-.1.41-.1.26 0 .48.14.23.15.52.31.3.17.7.31t1.02.14q.48 0 .83-.11.35-.12.57-.31.23-.18.33-.43.11-.25.11-.51 0-.4-.24-.65t-.63-.44-.89-.34q-.5-.14-1.02-.32t-1.02-.41q-.5-.24-.89-.6t-.63-.89-.24-1.28q0-.69.28-1.32.27-.63.81-1.09.53-.47 1.33-.75.79-.28 1.84-.28 1.17 0 2.12.38.96.39 1.6 1.02"/></svg>